# xmcd CD database file
#
# Track frame offsets:
#	150
#	13222
#	27073
#	40700
#	54334
#	68083
#	82185
#	95567
#	110644
#	124973
#	138585
#	151847
#	165958
#	178149
#	192523
#	206040
#	219701
#	231311
#	246588
#	259043
#	273152
#
# Disc length: 3808 seconds
#
# Revision: 0
# Processed by: cddbd v1.5.1PL2 Copyright (c) Steve Scherf et al.
# Submitted via: CDex 1.51
#
DISCID=350ede15
DTITLE=Thelonious Monk - Misterioso
DYEAR=1948
DGENRE=Jazz
TTITLE0=Humph
TTITLE1=Evonce
TTITLE2=Suburban Eyes
TTITLE3=Thelonious
TTITLE4=Nice Work If You Can Get It
TTITLE5=Ruby My Dear
TTITLE6=Well You Needn't
TTITLE7=April In Paris
TTITLE8=Introspection
TTITLE9=Off Minor
TTITLE10=In Walked Bud
TTITLE11=Monk's Mood
TTITLE12=Who Knows
TTITLE13='Round About Midnight
TTITLE14=All The Things You Are
TTITLE15=I Should Care
TTITLE16=Evidence
TTITLE17=Misterioso
TTITLE18=Misterioso (Alt-Take)
TTITLE19=Epistrophy
TTITLE20=I Mean You
EXTD=YEAR: 1948
EXTT0=
EXTT1=
EXTT2=
EXTT3=
EXTT4=
EXTT5=
EXTT6=
EXTT7=
EXTT8=
EXTT9=
EXTT10=
EXTT11=
EXTT12=
EXTT13=
EXTT14=
EXTT15=
EXTT16=
EXTT17=
EXTT18=
EXTT19=
EXTT20=
PLAYORDER=
